<mxfile host="app.diagrams.net" agent="Mozilla/5.0 (Macintosh; Intel Mac OS X 10_15_7) AppleWebKit/605.1.15 (KHTML, like Gecko) Version/18.0 Safari/605.1.15" version="24.7.16">
  <diagram name="Page-1" id="SHYUX78SMWidPF3YYurV">
    <mxGraphModel dx="1193" dy="830" grid="1" gridSize="10" guides="1" tooltips="1" connect="1" arrows="1" fold="1" page="1" pageScale="1" pageWidth="850" pageHeight="1100" math="0" shadow="0">
      <root>
        <mxCell id="0" />
        <mxCell id="1" parent="0" />
        <mxCell id="2IEkw9TarqVLjVoR8Vrz-1" value="&lt;font face=&quot;Segoe UI, SegoeUI, Helvetica Neue, Helvetica, Arial, sans-serif&quot;&gt;&lt;span style=&quot;caret-color: rgb(230, 230, 230); font-size: 12px;&quot;&gt;Some text&lt;/span&gt;&lt;/font&gt;" style="text;whiteSpace=wrap;html=1;fontFamily=Helvetica;fontSize=11;fontColor=default;labelBackgroundColor=default;" vertex="1" parent="1">
          <mxGeometry x="186" y="282" width="162" height="112" as="geometry" />
        </mxCell>
        <mxCell id="2IEkw9TarqVLjVoR8Vrz-4" style="edgeStyle=elbowEdgeStyle;rounded=0;orthogonalLoop=1;jettySize=auto;html=1;entryX=0;entryY=0.5;entryDx=0;entryDy=0;flowAnimation=1;strokeWidth=3;shape=link;elbow=vertical;" edge="1" parent="1" source="2IEkw9TarqVLjVoR8Vrz-2" target="2IEkw9TarqVLjVoR8Vrz-3">
          <mxGeometry relative="1" as="geometry" />
        </mxCell>
        <mxCell id="2IEkw9TarqVLjVoR8Vrz-2" value="Azure" style="shape=umlFrame;whiteSpace=wrap;html=1;pointerEvents=0;fontFamily=Helvetica;fontSize=11;fontColor=default;labelBackgroundColor=default;strokeWidth=3;width=81;height=22;strokeColor=default;align=center;verticalAlign=middle;fillColor=default;" vertex="1" parent="1">
          <mxGeometry x="170" y="250" width="194" height="184" as="geometry" />
        </mxCell>
        <mxCell id="2IEkw9TarqVLjVoR8Vrz-3" value="" style="rounded=1;whiteSpace=wrap;html=1;" vertex="1" parent="1">
          <mxGeometry x="600" y="320" width="120" height="60" as="geometry" />
        </mxCell>
      </root>
    </mxGraphModel>
  </diagram>
</mxfile>
